<svg xmlns="http://www.w3.org/2000/svg" width="87.3" height="25.6" viewBox="0 0 87.3 25.6">
    <path d="M12.8 0c3.6 0 6.6 1.2 9.1 3.7C23.1 5 24 6.3 24.7 7.9c.6 1.5.9 3.2.9 4.9 0 1.8-.3 3.4-.9 4.9s-1.5 2.9-2.7 4.1c-1.2 1.2-2.7 2.2-4.3 2.8-1.6.7-3.2 1-4.9 1s-3.3-.3-4.9-1C6.4 24 5 23 3.8 21.8c-1.2-1.2-2.2-2.6-2.8-4.1s-1-3.2-1-4.9c0-1.7.3-3.3 1-4.9.6-1.6 1.6-3 2.8-4.2C6.2 1.2 9.2 0 12.8 0zm0 2.3c-2.9 0-5.4 1-7.4 3.1-1 1-1.8 2.2-2.3 3.4-.5 1.3-.8 2.6-.8 4s.3 2.7.8 4c.5 1.3 1.3 2.4 2.3 3.4s2.1 1.8 3.4 2.3c1.3.5 2.6.8 4 .8s2.7-.3 4-.8 2.4-1.3 3.5-2.3c2-2 3-4.4 3-7.3 0-1.4-.3-2.8-.8-4-.5-1.3-1.3-2.4-2.3-3.4-2-2.2-4.5-3.2-7.4-3.2zm-.1 8.4l-1.7.9c-.2-.4-.4-.6-.7-.8s-.5-.2-.7-.2c-1.1 0-1.7.8-1.7 2.3 0 .7.1 1.2.4 1.6.3.4.7.6 1.3.6.7 0 1.3-.4 1.6-1.1l1.6.8c-.3.6-.8 1.1-1.4 1.5-.6.4-1.2.5-2 .5-1.1 0-2.1-.3-2.8-1.1-.7-.7-1.1-1.7-1.1-2.9s.4-2.2 1.1-2.9c.7-.7 1.6-1.1 2.7-1.1 1.5 0 2.7.6 3.4 1.9zm7.3 0l-1.7.9c-.2-.4-.4-.6-.7-.8s-.5-.2-.8-.2c-1.1 0-1.7.8-1.7 2.3 0 .7.1 1.2.4 1.6.3.4.7.6 1.3.6.7 0 1.3-.4 1.6-1.1l1.6.8c-.4.6-.8 1.1-1.4 1.5-.6.4-1.2.5-1.9.5-1.2 0-2.1-.3-2.8-1.1s-1-1.7-1-2.9.4-2.2 1.1-2.9c.7-.7 1.6-1.1 2.7-1.1 1.5 0 2.7.6 3.3 1.9zM43.7 0c3.6 0 6.6 1.2 9.1 3.7s3.7 5.5 3.7 9.1c0 3.6-1.2 6.6-3.7 9-2.6 2.5-5.6 3.8-9.2 3.8-3.5 0-6.5-1.3-9-3.8s-3.8-5.5-3.8-9 1.3-6.5 3.8-9.1C37.1 1.2 40.1 0 43.7 0zm0 2.3c-2.9 0-5.4 1-7.4 3.1-2.1 2.1-3.1 4.6-3.1 7.4 0 2.8 1 5.3 3.1 7.4 2.1 2.1 4.5 3.1 7.4 3.1 2.8 0 5.3-1 7.5-3.1 2-1.9 3-4.4 3-7.3 0-2.9-1-5.4-3.1-7.4s-4.5-3.2-7.4-3.2zm3.4 7.3v5.2h-1.5V21h-4v-6.2h-1.5V9.6c0-.2.1-.4.2-.6.2-.2.4-.2.6-.2h5.3c.2 0 .4.1.6.2.2.2.3.4.3.6zm-5.2-3.3c0-1.2.6-1.8 1.8-1.8s1.8.6 1.8 1.8c0 1.2-.6 1.8-1.8 1.8s-1.8-.6-1.8-1.8zM74.5 0c3.6 0 6.6 1.2 9.1 3.7s3.7 5.5 3.7 9.1c0 3.6-1.2 6.6-3.7 9-2.6 2.5-5.6 3.8-9.2 3.8-3.5 0-6.5-1.3-9-3.8s-3.8-5.5-3.8-9 1.3-6.5 3.8-9.1C68 1.3 71 0 74.5 0zm.1 2.3c-2.9 0-5.4 1-7.4 3.1-2.1 2.1-3.1 4.6-3.1 7.4 0 2.8 1 5.3 3.1 7.4 2.1 2.1 4.5 3.1 7.4 3.1 2.8 0 5.3-1 7.5-3.1 2-2 3-4.4 3-7.3 0-2.9-1-5.4-3.1-7.4-2.1-2.1-4.5-3.2-7.4-3.2zM68.9 11c.2-1.6.9-2.8 1.9-3.6 1-.9 2.3-1.3 3.7-1.3 2 0 3.6.6 4.8 1.9 1.2 1.3 1.8 3 1.8 5s-.6 3.6-1.9 4.9-2.8 2-4.8 2c-1.4 0-2.7-.4-3.7-1.3-1.1-.9-1.7-2.1-1.9-3.7H72c.1 1.6 1 2.3 2.8 2.3.9 0 1.6-.4 2.2-1.2s.8-1.8.8-3.1c0-1.4-.3-2.4-.8-3.1-.5-.7-1.2-1.1-2.2-1.1-1.7 0-2.7.8-2.9 2.3h.9l-2.5 2.5-2.5-2.5h1.1z"/>
</svg>