<svg xmlns="http://www.w3.org/2000/svg" width="24" height="23.4" viewBox="0 0 24 23.4">
 	<path fill="#fff" d="M12 0C5.4 0 0 5.4 0 12c0 5.3 3.4 9.8 8.2 11.4.6.1.8-.3.8-.6v-2c-3.3.7-4-1.6-4-1.6-.5-1.4-1.3-1.8-1.3-1.8-1.1-.7.1-.7.1-.7 1.2.1 1.8 1.2 1.8 1.2 1.1 1.8 2.8 1.3 3.5 1 .1-.8.4-1.3.8-1.6-2.8-.3-5.6-1.3-5.6-5.9 0-1.3.5-2.4 1.2-3.2 0-.4-.5-1.6.2-3.2 0 0 1-.3 3.3 1.2 1-.3 2-.4 3-.4s2 .1 3 .4C17.3 4.7 18.3 5 18.3 5c.7 1.7.2 2.9.1 3.2.8.8 1.2 1.9 1.2 3.2 0 4.6-2.8 5.6-5.5 5.9.4.4.8 1.1.8 2.2v3.3c0 .3.2.7.8.6C20.6 21.8 24 17.3 24 12c0-6.6-5.4-12-12-12z"/>
</svg>