<svg xmlns="http://www.w3.org/2000/svg" width="94" height="157.8" viewBox="0 0 94 157.8">
  <path fill="#F16529" d="M94 134.9c0 .6-.4 1-1 1H1c-.6 0-1-.4-1-1V1c0-.6.4-1 1-1h92c.6 0 1 .5 1 1v133.9z" id="Main_Rectangle"/>
  <g id="Lined_5" fill="none" stroke="#F7F7F5" stroke-width="2" stroke-miterlimit="10">
    <path d="M54.6 87.6c5 0 9 4 9 9s-4 9-9 9-9-4-9-9"/>
    <path d="M54.6 83c7.5 0 13.6 6.1 13.6 13.6s-6.1 13.6-13.6 13.6S41 104.1 41 96.6"/>
    <path d="M54.6 78.4c10.1 0 18.2 8.1 18.2 18.2s-8.1 18.2-18.2 18.2-18.2-8.1-18.2-18.2"/>
    <path d="M54.6 73.8c12.6 0 22.8 10.2 22.8 22.8s-10.2 22.8-22.8 22.8-22.8-10.2-22.8-22.8"/>
    <path d="M54.6 69.2C69.7 69.2 82 81.5 82 96.6S69.7 124 54.6 124s-27.4-12.3-27.4-27.4M50 89V35M55 65V35M45 89V35M40 89V35M35 89V35M77 46H59M79 41H59M81 36H59M75 51H59M73 56H59"/>
  </g>
  <g id="A11Y" fill="#F16529">
    <path d="M69.2 152.9h-2.9l-.9-2.4h-4.6l-.9 2.4H57l4.8-12h2.5l4.9 12zm-6.1-8.3l-1.4 3.5h2.7l-1.3-3.5zM70.2 143.1l3.4-2.2H75v12h-2.7v-8.4l-2 1.3v-2.7zM76.3 143.1l3.4-2.2H81v12h-2.7v-8.4l-2 1.3v-2.7zM85.7 140.9l2.5 3.8 2.5-3.8H94l-4.4 6.6v5.4h-2.7v-5.4l-4.4-6.6h3.2z"/>
  </g>
  <g id="Bottom_Lines" fill="none" stroke="#F16529" stroke-width="2" stroke-miterlimit="10">
    <path d="M58 142H0M56 147H0M54 152H0"/>
  </g>
</svg>
