<svg xmlns="http://www.w3.org/2000/svg" viewBox="-225 114 48 80" enable-background="new -225 114 48 80"><defs/><path fill="#f16529" d="m-177 182.5c0 .3-.2.5-.5.5h-47c-.3 0-.5-.2-.5-.5v-68c0-.3.2-.5.5-.5h47c.3 0 .5.2.5.5v68"/><g fill="none" stroke="#f7f7f5" stroke-miterlimit="10"><path d="m-197 158.4c2.5 0 4.6 2.1 4.6 4.6s-2.1 4.6-4.6 4.6-4.6-2.1-4.6-4.6"/><path d="m-197 156c3.8 0 6.9 3.1 6.9 6.9 0 3.8-3.1 6.9-6.9 6.9s-7-3-7-6.8"/><path d="m-197 153.7c5.1 0 9.3 4.2 9.3 9.3s-4.2 9.3-9.3 9.3-9.3-4.2-9.3-9.3"/><path d="m-197 151.3c6.4 0 11.6 5.2 11.6 11.6 0 6.4-5.2 11.7-11.6 11.7s-11.7-5.2-11.7-11.6"/><path d="m-197 149c7.7 0 14 6.3 14 14s-6.3 14-14 14-14-6.3-14-14"/><path d="m-198.5 159v-27"/><path d="m-196.5 147v-15"/><path d="m-200.5 159v-27"/><path d="m-202.5 159v-27"/><path d="m-204.5 159v-27"/><path d="m-186 136.5h-9"/><path d="m-185 134.5h-10"/><path d="m-184 132.5h-11"/><path d="m-187 138.5h-8"/><path d="m-188 140.5h-7"/></g><g fill="#f16529"><path d="m-194.8 186l2.8 7h-1.7l-.5-1.4h-2.7l-.5 1.4h-1.7l2.8-7h1.5m0 4.2l-.8-2-.8 2h1.6"/><path d="m-191.6 188.9v-1.6l2-1.3h.8v7h-1.6v-4.9l-1.2.8"/><path d="m-187.4 188.9v-1.6l2-1.3h.8v7h-1.6v-4.9l-1.2.8"/><path d="m-183.8 186h1.9l1.5 2.2 1.5-2.2h1.9l-2.6 3.9v3.1h-1.6v-3.1l-2.6-3.9"/></g><g fill="none" stroke="#f16529" stroke-miterlimit="10"><path d="m-199.4 186.5h-25.6"/><path d="m-200.4 189.5h-24.6"/><path d="m-201.4 192.5h-23.6"/></g></svg>