<svg xmlns="http://www.w3.org/2000/svg" width="32" height="32.2" viewBox="0 0 32 32.2">
  <g id="Chrome">
    <path fill="#FCD206" d="M14.5 32.2L19.3 22l.6-11h11.5-.2c.5 2 .8 3.4.8 5.2 0 8.8-7.2 16-16 16-.9 0-1.7-.1-2.6-.2l1.1.2z"/>
    <path fill="#4DB749" d="M13.4 32C5.8 30.8 0 24.2 0 16.2c0-3.3 1-6.4 2.7-9v-.6L9.9 19l9.3 3.1-4.8 10.2-1-.3z"/>
    <path fill="#E7453E" d="M9.9 18.9l9.9-7.9h11.5-.2C29 5 23 .2 16 .2 10.5.2 5.6 3 2.7 7.2l7.2 11.7z"/>
    <path fill="#5C98C8" d="M16 21.7c-3 0-5.5-2.5-5.5-5.5s2.5-5.5 5.5-5.5 5.5 2.5 5.5 5.5-2.5 5.5-5.5 5.5z"/>
    <path fill="#FFF" d="M16 11.7c2.5 0 4.5 2 4.5 4.5s-2 4.5-4.5 4.5-4.5-2-4.5-4.5 2-4.5 4.5-4.5m0-2c-3.6 0-6.5 2.9-6.5 6.5s2.9 6.5 6.5 6.5 6.5-2.9 6.5-6.5-2.9-6.5-6.5-6.5z"/>
  </g>
</svg>
