<svg xmlns="http://www.w3.org/2000/svg" width="35" height="33.6" viewBox="0 0 35 33.6">
  <g id="Firefox">
    <path id="Earth" fill="#099BD4" d="M5.3 5.7C8.2 2.2 12.6 0 17.5 0c8.8 0 16 7.2 16 16s-7.2 16-16 16-16-7.2-16-16c0-2.2.4-4.2 1.2-6.1.1-.4.3-.7.4-1"/>
    <path id="Fox" fill="#E88926" stroke="#FFF" stroke-miterlimit="10" d="M1.7 8.7c-.1-1.2.1-2.1.2-2.8.1-.4.2-.8.4-1.1V5c0-.2.1-.3.1-.4.1-.3.2-.5.3-.6v.3c0-.1.1-.2.1-.3.3-1 .7-1.2.7-1.2 0 .6.2 1.4.5 1.9 0 .1 0-.1.1-.1.7 1 1.1 1.3 1.4 1.5 1.1-.4 2.5-.5 4-.1.2-.1.4-.3.5-.5v.2c.2-.4.8-.8 1-1v.2c.5-.4 1.2-.7 1.7-.8.1 0-.3.1-.4.3.3-.1.3-.2.8-.3.5-.1 1.1.1 1 .1-.1 0-.5.2-.6.3-.1.1.2 0 .2 0-1 .8-1.7 1.8-2 3 0 .1.1.2.1.3.2.1.2.2.3.3.3.4.8.8 1.5.8 2.7 0 2.9.2 2.9.5 0 .5-.1.8-.2 1-.2.3-.4.6-.7.8-.2.1-2.7 1.5-2.8 1.9 0 .1.1.2.1.3-.1-.1-.2 0-.1.1s.1.2.1.6c.1.5 0 .8-.1 1-.2-.1-.4-.2-.5-.2.3.2.4.4.4.4.1.2 0 .2 0 .2s-.1-.2-.4-.3c-.2-.1-.7-.3-.9-.3h-.1c.1.1.2.3.2.3l-.4-.2c-.5.3-.7.8-.7 1.2 0 .5-.1 1.3 1.6 2.3 0 0-.3-.1-.2 0 .2.1.8.4 1.1.5.1.1-.4-.1-.3 0 .1.1.2.1.3.1 1.8.7 2.9-.3 4.1-.6 1.7-.4 2.9.4 3.4.9.5.6.1 1.2-.6 1.1-.6-.1-1.4.5-2.6 1.3-1.2.8-3.3 1.2-5.2.7.5.5 1.3 1.4 2 1.6.7.2 1.8.1 2.2.6-.4-.3-1-.1-1.4-.1 2.5 1.3 4.5.9 4.9.9 1.1-.2 1.6-.5 1.8-.7 0 .3-.2.5-.4.6.2.2.7-.4 1.2-.9l.4-.4-.2.3.3-.3c.2-.3.5-.4.5-.4.1.1 0 .4 0 .6l.1.1c.3.1 1.1-.5 1.9-2.1 1-2.2 1.1-3.7 1.1-3.7.1.3.3.7.4 1.3.3-1.3.8-2.4.3-7.3.5.4 1.2 1.7 1.6 2.5.3-5-2.3-8.4-3.8-9.5 1 .1 2.5 1 3.4 1.9-.8-1.6-2-3.4-5.2-5.6 4.2 1.2 6.9 3.9 8.6 6.7 0-.4-.1-1-.3-1.6l.7.9c1.4 2.5 2.3 5.4 2.3 8.5 0 9.4-7.6 17-17 17s-17-7.6-17-17c0-2.3.4-4.5 1.2-6.5V8.7z"/>
  </g>
</svg>
