<svg xmlns="http://www.w3.org/2000/svg" width="61.9" height="61" viewBox="0 0 61.9 61">
  <path fill="#00bcf2" d="M58.7 18.6c3-7 3.3-12.8-.2-16.3-3.8-3.9-13.2-2.7-23 1.9h-1.2c-6.9 0-13.6 2.5-18.7 7-4.3 3.8-7.3 8.9-8.7 14.6 1-1.2 6.4-7.6 12.6-11.1.1-.1 1.7-.9 1.8-.9-.1.1-3.2 2.9-3.7 3.5C3.9 31.1-4 52.2 2.1 58.5c4 4 11.4 3 20-1.6 3.7 1.7 7.8 2.6 12.2 2.6 5.8 0 11.3-1.6 15.8-4.7 4.8-3.2 8.4-7.9 10.5-13.6H45.5c-1.9 3.7-6.5 6.3-11.1 6.3-6.6 0-12.1-5.4-12.1-11.7v-.5h39.4c0-.2 0-.4.1-.6.1-1 .2-2.1.2-2.9-.1-4.8-1.2-9.2-3.3-13.2zM6.4 57.3c-3-3-2.2-9.1 1.6-16.3 1.8 4.9 4.6 9.1 8.4 12.3 1.2 1 2.5 1.9 3.8 2.7C14 59.2 9 59.9 6.4 57.3zm14.6-.9c.1 0 .1.1.2.1-.1-.1-.2-.1-.2-.1zm25.1-28.5H22.3v-.3c.3-6 6-11.2 12.5-11.2 6.2 0 11.3 4.9 11.6 11.2v.3h-.3zm7.3-16.2c-2.7-2.5-5.9-4.4-9.3-5.7 6.2-2.8 11.3-3.2 14.1-.5 2.3 2.3 2 6.4-.3 11.6-1.2-1.9-2.7-3.8-4.5-5.4zm4.9 6.2z"/>
</svg>