<svg width="64" height="64" viewBox="0 0 64 64" fill="none" xmlns="http://www.w3.org/2000/svg">
<g clip-path="url(#clip0)">
<path d="M57.7627 47.6333C56.9215 48.0743 56.0426 48.4688 55.1294 48.8118C52.3841 49.8431 49.3523 50.4277 46.1545 50.4277C34.3242 50.4277 24.0187 42.2897 24.0187 31.8471C24.0187 28.9107 25.7175 26.3656 28.125 25.0249C17.4262 25.4734 14.6759 36.6249 14.6759 43.1576C14.6759 61.6257 31.6982 63.5 35.366 63.5C37.3427 63.5 40.3262 62.9243 42.1237 62.3604C42.2333 62.3239 42.3424 62.2872 42.4514 62.2496C49.3912 59.8563 55.2484 55.1478 59.0985 49.0446C59.6506 48.1693 58.6797 47.1525 57.7627 47.6333Z" fill="url(#paint0_linear)"/>
<path opacity="0.35" d="M57.7627 47.6333C56.9215 48.0743 56.0426 48.4688 55.1294 48.8118C52.3841 49.8431 49.3523 50.4277 46.1545 50.4277C34.3242 50.4277 24.0187 42.2897 24.0187 31.8471C24.0187 28.9107 25.7175 26.3656 28.125 25.0249C17.4262 25.4734 14.6759 36.6249 14.6759 43.1576C14.6759 61.6257 31.6982 63.5 35.366 63.5C37.3427 63.5 40.3262 62.9243 42.1237 62.3604C42.2333 62.3239 42.3424 62.2872 42.4514 62.2496C49.3912 59.8563 55.2484 55.1478 59.0985 49.0446C59.6506 48.1693 58.6797 47.1525 57.7627 47.6333Z" fill="url(#paint1_radial)"/>
<path d="M26.4278 60.3533C24.2042 58.9749 22.2739 57.1574 20.7439 55.0094C18.3765 51.6855 16.9611 47.5968 16.9611 43.1576C16.9611 36.625 20.003 30.8389 24.6919 27.1728C25.7568 26.3403 27.1203 25.5005 28.1249 25.0249C28.9051 24.6556 30.2392 23.9906 32.0113 24.0157C34.9492 24.0574 37.169 25.5552 38.4326 27.2563C39.4034 28.5633 40.0021 30.1736 40.0221 31.9216C40.0228 31.869 46.1381 12.0205 20.0098 12.0205C9.03657 12.0205 0 22.4379 0 31.5743C0 37.3698 1.34483 41.9968 3.02864 45.5826C6.77879 53.5699 13.7331 59.752 22.2401 62.4758C25.3209 63.4622 28.6027 63.9998 32.0113 63.9998C35.5465 63.9998 38.944 63.4184 42.1236 62.3604C40.326 62.9243 38.4204 63.2329 36.4437 63.2329C32.7759 63.2329 29.3574 62.1692 26.4278 60.3533Z" fill="url(#paint2_linear)"/>
<path opacity="0.41" d="M26.4278 60.3533C24.2042 58.9749 22.2739 57.1574 20.7439 55.0094C18.3765 51.6855 16.9611 47.5968 16.9611 43.1576C16.9611 36.625 20.003 30.8389 24.6919 27.1728C25.7568 26.3403 27.1203 25.5005 28.1249 25.0249C28.9051 24.6556 30.2392 23.9906 32.0113 24.0157C34.9492 24.0574 37.169 25.5552 38.4326 27.2563C39.4034 28.5633 40.0021 30.1736 40.0221 31.9216C40.0228 31.869 46.1381 12.0205 20.0098 12.0205C9.03657 12.0205 0 22.4379 0 31.5743C0 37.3698 1.34483 41.9968 3.02864 45.5826C6.77879 53.5699 13.7331 59.752 22.2401 62.4758C25.3209 63.4622 28.6027 63.9998 32.0113 63.9998C35.5465 63.9998 38.944 63.4184 42.1236 62.3604C40.326 62.9243 38.4204 63.2329 36.4437 63.2329C32.7759 63.2329 29.3574 62.1692 26.4278 60.3533Z" fill="url(#paint3_radial)"/>
<path d="M38.0786 37.2144C37.876 37.4767 37.2527 37.8388 37.2527 38.6303C37.2527 39.2814 37.6778 39.9096 38.4332 40.4368C42.0283 42.9459 48.8046 42.6077 48.8227 42.6077C51.6202 42.598 54.1368 41.8287 56.391 40.5108C57.4166 39.9111 58.3657 39.1989 59.2215 38.3858C62.1584 35.5951 63.9489 31.6623 63.9986 27.2926C64.0623 21.6887 62.0086 17.9632 61.1644 16.3135C55.8662 5.95899 44.4295 0 31.9945 0C14.4659 0 0.236746 14.0865 0.00152588 31.55C0.120356 22.4143 9.19996 15.0372 19.993 15.0372C20.8681 15.0372 25.8585 15.1225 30.4943 17.5555C34.5779 19.6987 36.7189 22.2884 38.2069 24.8575C39.752 27.5249 40.0268 30.894 40.0268 32.2372C40.0268 33.5804 39.3496 35.5692 38.0786 37.2144Z" fill="url(#paint4_radial)"/>
<path d="M38.0786 37.2144C37.876 37.4767 37.2527 37.8388 37.2527 38.6303C37.2527 39.2814 37.6778 39.9096 38.4332 40.4368C42.0283 42.9459 48.8046 42.6077 48.8227 42.6077C51.6202 42.598 54.1368 41.8287 56.391 40.5108C57.4166 39.9111 58.3657 39.1989 59.2215 38.3858C62.1584 35.5951 63.9489 31.6623 63.9986 27.2926C64.0623 21.6887 62.0086 17.9632 61.1644 16.3135C55.8662 5.95899 44.4295 0 31.9945 0C14.4659 0 0.236746 14.0865 0.00152588 31.55C0.120356 22.4143 9.19996 15.0372 19.993 15.0372C20.8681 15.0372 25.8585 15.1225 30.4943 17.5555C34.5779 19.6987 36.7189 22.2884 38.2069 24.8575C39.752 27.5249 40.0268 30.894 40.0268 32.2372C40.0268 33.5804 39.3496 35.5692 38.0786 37.2144Z" fill="url(#paint5_radial)"/>
</g>
<defs>
<linearGradient id="paint0_linear" x1="14.6759" y1="44.2624" x2="59.2597" y2="44.2624" gradientUnits="userSpaceOnUse">
<stop stop-color="#0C59A4"/>
<stop offset="1" stop-color="#114A8B"/>
</linearGradient>
<radialGradient id="paint1_radial" cx="0" cy="0" r="1" gradientUnits="userSpaceOnUse" gradientTransform="translate(39.3011 44.5956) scale(23.846 22.6792)">
<stop offset="0.71659" stop-opacity="0"/>
<stop offset="0.9459" stop-opacity="0.53"/>
<stop offset="1"/>
</radialGradient>
<linearGradient id="paint2_linear" x1="38.1808" y1="24.9208" x2="10.332" y2="55.2547" gradientUnits="userSpaceOnUse">
<stop stop-color="#1B9DE2"/>
<stop offset="0.16164" stop-color="#1595DF"/>
<stop offset="0.66749" stop-color="#0680D7"/>
<stop offset="1" stop-color="#0078D4"/>
</linearGradient>
<radialGradient id="paint3_radial" cx="0" cy="0" r="1" gradientUnits="userSpaceOnUse" gradientTransform="translate(17.8262 49.6658) rotate(-81.464) scale(35.8088 28.855)">
<stop offset="0.76293" stop-opacity="0"/>
<stop offset="0.9459" stop-opacity="0.5"/>
<stop offset="1"/>
</radialGradient>
<radialGradient id="paint4_radial" cx="0" cy="0" r="1" gradientUnits="userSpaceOnUse" gradientTransform="translate(6.30857 11.7013) rotate(92.129) scale(50.6079 107.786)">
<stop stop-color="#35C1F1"/>
<stop offset="0.11079" stop-color="#34C1ED"/>
<stop offset="0.23164" stop-color="#2FC2DF"/>
<stop offset="0.31446" stop-color="#2BC3D2"/>
<stop offset="0.67338" stop-color="#36C752"/>
</radialGradient>
<radialGradient id="paint5_radial" cx="0" cy="0" r="1" gradientUnits="userSpaceOnUse" gradientTransform="translate(60.6175 19.3937) rotate(73.6747) scale(24.3344 19.8678)">
<stop stop-color="#66EB6E"/>
<stop offset="1" stop-color="#66EB6E" stop-opacity="0"/>
</radialGradient>
<clipPath id="clip0">
<rect width="64" height="64" fill="white"/>
</clipPath>
</defs>
</svg>
