<svg xmlns="http://www.w3.org/2000/svg" width="34" height="34" viewBox="0 0 34 34">
  <g id="Safari">
    <radialGradient id="Outer_Ring_1_" cx="17" cy="17" r="17" gradientUnits="userSpaceOnUse">
      <stop offset="0" stop-color="#0672D9"/>
      <stop offset="1" stop-color="#0672D9"/>
    </radialGradient>
    <circle id="Outer_Ring" fill="none" stroke="url(#Outer_Ring_1_)" stroke-width="2" stroke-miterlimit="10" cx="17" cy="17" r="16"/>
    <radialGradient id="Background_1_" cx="17" cy="17" r="13.333" gradientUnits="userSpaceOnUse">
      <stop offset="0" stop-color="#0672D9"/>
      <stop offset="1" stop-color="#0672D9"/>
    </radialGradient>
    <circle id="Background" fill="url(#Background_1_)" cx="17" cy="17" r="13.3"/>
    <path id="Red_Needle" fill="#FE4F4C" stroke="#FE4F4C" stroke-miterlimit="10" d="M15.4 15.6L24.8 9l-6.7 9.3z"/>
    <path id="White_Needle" fill="#FFF" stroke="#FFF" stroke-miterlimit="10" d="M18.2 18.3L8.8 25l6.7-9.4"/>
    <g id="Lines">
      <g fill="none" stroke="#FFF" stroke-miterlimit="10">
        <path d="M16.5 4v4M16.5 26v4"/>
      </g>
      <g fill="none" stroke="#FFF" stroke-miterlimit="10">
        <path d="M11.6 4.7l1.3 2.9M20.6 26.4l1.2 2.9"/>
      </g>
      <g fill="none" stroke="#FFF" stroke-miterlimit="10">
        <path d="M21.8 4.7l-1.2 2.9M12.9 26.4l-1.3 2.9"/>
      </g>
      <g fill="none" stroke="#FFF" stroke-miterlimit="10">
        <path d="M4.4 22.1l3-1.2M26.1 13.1l3-1.2"/>
      </g>
      <g fill="none" stroke="#FFF" stroke-miterlimit="10">
        <path d="M4.4 11.9l3 1.2M26.1 20.9l3 1.2"/>
      </g>
      <g fill="none" stroke="#FFF" stroke-miterlimit="10">
        <path d="M3 17.5h4M25 17.5h5"/>
      </g>
      <g fill="none" stroke="#FFF" stroke-miterlimit="10">
        <path d="M25.9 26.7l-3.3-3.3M10.4 11.2L7 7.8"/>
      </g>
      <path fill="none" stroke="#FFF" stroke-miterlimit="10" d="M9.3 24.4L7 26.7"/>
    </g>
  </g>
</svg>
