<svg xmlns="http://www.w3.org/2000/svg" width="48" height="48" viewBox="0 0 48 48">
	<path style="fill: none; stroke: windowText; stroke-width: 4" d="M2 2h44v44H2z"/>
	<path style="fill: windowText" d="M19.3 15.5L25.9 32h-4l-1.2-3.3h-6.3L13.2 32h-4l6.7-16.5h3.4zm.1 9.9l-1.8-4.8-1.8 4.8h3.6zM28.1 30.7c-1-1-1.4-2.3-1.4-3.9s.5-2.8 1.4-3.9c1-1.1 2.2-1.6 3.7-1.6 1.4 0 2.5.4 3.4 1.3v-1h3.5V32h-3.5v-1.2c-.9 1-2 1.5-3.4 1.5-1.5 0-2.7-.5-3.7-1.6zm3-5.6c-.5.5-.7 1-.7 1.7s.2 1.3.7 1.7c.4.4 1 .7 1.7.7s1.3-.2 1.7-.7c.4-.5.7-1 .7-1.7s-.2-1.3-.7-1.7-1-.7-1.7-.7c-.7.1-1.2.3-1.7.7z"/>
	<path style="stroke: windowText; stroke-width: 4" d="M9 38h30"/>
</svg>
